<?xml version="1.0" encoding="utf-8"?>
<!-- Generator: Adobe Illustrator 24.1.1, SVG Export Plug-In . SVG Version: 6.00 Build 0)  -->
<svg version="1.1" id="Calque_1" xmlns="http://www.w3.org/2000/svg" xmlns:xlink="http://www.w3.org/1999/xlink" x="0px" y="0px"
	 viewBox="0 0 100 125" style="enable-background:new 0 0 100 125;" xml:space="preserve">
<path d="M98,50c0,26.5-21.5,48-48,48H5c-1.7,0-3-1.3-3-3s1.3-3,3-3h45c23.2,0,42-18.8,42-42S73.2,8,50,8H27.5C16.7,8,8,16.7,8,27.5
	S16.7,47,27.5,47h27.6L36.3,34.5c-1.4-0.9-1.8-2.8-0.8-4.2c0.9-1.4,2.8-1.8,4.2-0.8l27,18l0,0l0,0l0,0c0.1,0.1,0.2,0.1,0.3,0.2
	c0.1,0,0.1,0.1,0.2,0.1l0,0c0.1,0.1,0.1,0.1,0.2,0.2c0.1,0.1,0.1,0.2,0.2,0.3l0,0l0,0c0.1,0.1,0.1,0.2,0.1,0.2
	c0.1,0.1,0.1,0.2,0.1,0.3l0,0c0,0.1,0,0.2,0.1,0.2l0,0c0,0.1,0.1,0.2,0.1,0.3l0,0c0,0.1,0,0.2,0,0.3c0,0.1,0,0.2,0,0.3l0,0l0,0
	c0,0.1,0,0.2,0,0.3c0,0.1,0,0.2,0,0.3l0,0c0,0.1-0.1,0.2-0.1,0.3l0,0c0,0.1,0,0.2-0.1,0.2l0,0c0,0.1-0.1,0.2-0.1,0.3
	c0,0.1-0.1,0.2-0.1,0.2l0,0l0,0c-0.1,0.1-0.1,0.2-0.2,0.3c-0.1,0.1-0.1,0.1-0.2,0.2c0,0-0.1,0-0.1,0.1c-0.1,0-0.1,0.1-0.2,0.1
	c-0.1,0.1-0.1,0.1-0.2,0.2l0,0l-27,18c-1.4,0.9-3.2,0.5-4.2-0.8c-0.9-1.4-0.5-3.2,0.8-4.2L55.1,53H27.5C13.4,53,2,41.6,2,27.5
	S13.4,2,27.5,2H50C76.5,2,98,23.5,98,50z"/>
</svg>
