<svg xmlns="http://www.w3.org/2000/svg" viewBox="0 0 32 40" x="0px" y="0px"><title>recent-clock</title><g><path d="M16,31A15,15,0,1,1,31,16,15,15,0,0,1,16,31ZM16,3A13,13,0,1,0,29,16,13,13,0,0,0,16,3Z"/><path d="M21,23a1,1,0,0,1-.77-.36l-5-6A1,1,0,0,1,15,16V6a1,1,0,0,1,2,0v9.64l4.77,5.72A1,1,0,0,1,21,23Z"/></g><text x="0" y="47" fill="#000000" font-size="5px" font-weight="bold" font-family="'Helvetica Neue', Helvetica, Arial-Unicode, Arial, Sans-serif">Created by Yoyon Pujiyono</text><text x="0" y="52" fill="#000000" font-size="5px" font-weight="bold" font-family="'Helvetica Neue', Helvetica, Arial-Unicode, Arial, Sans-serif">from the Noun Project</text></svg>