<?xml version="1.0" encoding="utf-8"?>
<!-- Generator: Adobe Illustrator 24.1.1, SVG Export Plug-In . SVG Version: 6.00 Build 0)  -->
<svg version="1.1" id="Calque_1" xmlns="http://www.w3.org/2000/svg" xmlns:xlink="http://www.w3.org/1999/xlink" x="0px" y="0px"
	 viewBox="0 0 60 75" style="enable-background:new 0 0 60 75;" xml:space="preserve">
<path d="M54.3,29.9C54.3,16.2,43.2,5,29.5,5c-11,0-20.5,7-23.8,17.5c-0.2,0.5,0.1,1.1,0.7,1.3c0.5,0.2,1.1-0.1,1.3-0.7
	C10.6,13.5,19.4,7,29.5,7c12.6,0,22.9,10.3,22.9,22.9S42.1,52.8,29.5,52.8c-4.8,0-9.5-1.5-13.4-4.4L20,48c0.5-0.1,0.9-0.5,0.9-1.1
	c-0.1-0.5-0.5-1-1.1-0.9l-6.3,0.6c-0.5,0.1-0.9,0.5-0.9,1.1l0.6,6.3c0.1,0.5,0.5,0.9,1,0.9c0,0,0.1,0,0.1,0c0.5-0.1,0.9-0.5,0.9-1.1
	L14.8,50c4.2,3.1,9.4,4.8,14.7,4.8C43.2,54.8,54.3,43.6,54.3,29.9z"/>
<path d="M30,17.2c-0.6,0-1,0.4-1,1V30c0,0.4,0.2,0.7,0.6,0.9l15.1,7.4c0.1,0.1,0.3,0.1,0.4,0.1c0.4,0,0.7-0.2,0.9-0.6
	c0.2-0.5,0-1.1-0.5-1.3L31,29.4V18.2C31,17.6,30.6,17.2,30,17.2z"/>
</svg>
